<mxfile modified="2023-11-04T21:56:14.419Z" host="app.diagrams.net" agent="Mozilla/5.0 (Windows NT 10.0; Win64; x64) AppleWebKit/537.36 (KHTML, like Gecko) Chrome/118.0.0.0 Safari/537.36" etag="CyqU2-fXvEt5io7CVakR" version="22.0.8" type="github">
  <diagram id="l8hXMBHkgcEJcSW0mbfh" name="Page-1">
    <mxGraphModel dx="1502" dy="568" grid="1" gridSize="10" guides="1" tooltips="1" connect="1" arrows="1" fold="1" page="1" pageScale="1" pageWidth="1169" pageHeight="827" math="0" shadow="0">
      <root>
        <mxCell id="0" />
        <mxCell id="1" parent="0" />
        <mxCell id="8--HhbSZYtI3ddgJnD71-24" style="edgeStyle=none;rounded=0;orthogonalLoop=1;jettySize=auto;html=1;sourcePerimeterSpacing=5;endArrow=none;endFill=0;targetPerimeterSpacing=5;labelBackgroundColor=none;fontColor=default;strokeColor=#E07A5F;" parent="1" edge="1">
          <mxGeometry relative="1" as="geometry">
            <mxPoint x="223" y="216.44444444444446" as="sourcePoint" />
            <mxPoint x="318" y="237.55555555555554" as="targetPoint" />
          </mxGeometry>
        </mxCell>
        <mxCell id="8--HhbSZYtI3ddgJnD71-20" style="rounded=0;orthogonalLoop=1;jettySize=auto;html=1;endArrow=none;endFill=0;sourcePerimeterSpacing=5;targetPerimeterSpacing=5;labelBackgroundColor=none;fontColor=default;strokeColor=#E07A5F;" parent="1" source="QUnLnhxxO0VGhR0nGTpD-4" edge="1">
          <mxGeometry relative="1" as="geometry">
            <mxPoint x="388.09550284161105" y="173" as="sourcePoint" />
            <mxPoint x="365.06140350877195" y="215" as="targetPoint" />
          </mxGeometry>
        </mxCell>
        <mxCell id="8--HhbSZYtI3ddgJnD71-22" style="edgeStyle=none;rounded=0;orthogonalLoop=1;jettySize=auto;html=1;sourcePerimeterSpacing=5;endArrow=none;endFill=0;targetPerimeterSpacing=5;exitX=0.75;exitY=1;exitDx=0;exitDy=0;labelBackgroundColor=none;fontColor=default;strokeColor=#E07A5F;" parent="1" source="QUnLnhxxO0VGhR0nGTpD-2" edge="1">
          <mxGeometry relative="1" as="geometry">
            <mxPoint x="327.6399999999999" y="123" as="sourcePoint" />
            <mxPoint x="342.3599999999999" y="215" as="targetPoint" />
          </mxGeometry>
        </mxCell>
        <mxCell id="QUnLnhxxO0VGhR0nGTpD-29" style="edgeStyle=orthogonalEdgeStyle;rounded=0;orthogonalLoop=1;jettySize=auto;html=1;" edge="1" parent="1" source="QUnLnhxxO0VGhR0nGTpD-1" target="QUnLnhxxO0VGhR0nGTpD-2">
          <mxGeometry relative="1" as="geometry" />
        </mxCell>
        <mxCell id="QUnLnhxxO0VGhR0nGTpD-1" value="" style="image;html=1;image=img/lib/clip_art/computers/Server_Tower_128x128.png;fontFamily=Verdana;labelBackgroundColor=none;fillColor=#F2CC8F;strokeColor=#E07A5F;fontColor=#393C56;rounded=0;" vertex="1" parent="1">
          <mxGeometry x="299" y="202" width="80" height="80" as="geometry" />
        </mxCell>
        <mxCell id="QUnLnhxxO0VGhR0nGTpD-52" style="edgeStyle=orthogonalEdgeStyle;rounded=0;orthogonalLoop=1;jettySize=auto;html=1;exitX=0.25;exitY=0;exitDx=0;exitDy=0;" edge="1" parent="1" source="QUnLnhxxO0VGhR0nGTpD-2" target="QUnLnhxxO0VGhR0nGTpD-55">
          <mxGeometry relative="1" as="geometry">
            <mxPoint x="100" y="440" as="targetPoint" />
            <Array as="points">
              <mxPoint x="251" y="80" />
              <mxPoint x="95" y="80" />
            </Array>
          </mxGeometry>
        </mxCell>
        <mxCell id="QUnLnhxxO0VGhR0nGTpD-2" value="" style="image;aspect=fixed;perimeter=ellipsePerimeter;html=1;align=center;shadow=0;dashed=0;spacingTop=3;image=img/lib/active_directory/web_server.svg;labelBackgroundColor=none;fillColor=#F2CC8F;strokeColor=#E07A5F;fontColor=#393C56;rounded=0;" vertex="1" parent="1">
          <mxGeometry x="240" y="90" width="40" height="50" as="geometry" />
        </mxCell>
        <mxCell id="QUnLnhxxO0VGhR0nGTpD-32" style="edgeStyle=orthogonalEdgeStyle;rounded=0;orthogonalLoop=1;jettySize=auto;html=1;exitX=0;exitY=1;exitDx=0;exitDy=0;exitPerimeter=0;entryX=0.5;entryY=0;entryDx=0;entryDy=0;" edge="1" parent="1" source="QUnLnhxxO0VGhR0nGTpD-3" target="QUnLnhxxO0VGhR0nGTpD-5">
          <mxGeometry relative="1" as="geometry" />
        </mxCell>
        <mxCell id="QUnLnhxxO0VGhR0nGTpD-47" style="edgeStyle=orthogonalEdgeStyle;rounded=0;orthogonalLoop=1;jettySize=auto;html=1;exitX=0.57;exitY=0.5;exitDx=0;exitDy=0;exitPerimeter=0;entryX=0.25;entryY=1;entryDx=0;entryDy=0;" edge="1" parent="1" source="QUnLnhxxO0VGhR0nGTpD-3" target="QUnLnhxxO0VGhR0nGTpD-2">
          <mxGeometry relative="1" as="geometry" />
        </mxCell>
        <mxCell id="QUnLnhxxO0VGhR0nGTpD-3" value="" style="aspect=fixed;pointerEvents=1;shadow=0;dashed=0;html=1;strokeColor=#001DBC;labelPosition=center;verticalLabelPosition=bottom;verticalAlign=top;align=center;shape=mxgraph.mscae.enterprise.application_server;labelBackgroundColor=none;fillColor=#0050ef;rounded=0;fontColor=#ffffff;" vertex="1" parent="1">
          <mxGeometry x="170" y="178" width="43" height="50" as="geometry" />
        </mxCell>
        <mxCell id="QUnLnhxxO0VGhR0nGTpD-4" value="" style="shape=image;html=1;verticalAlign=top;verticalLabelPosition=bottom;labelBackgroundColor=none;imageAspect=0;aspect=fixed;image=https://cdn1.iconfinder.com/data/icons/100-basic-for-user-interface/32/73-files-128.png;fillColor=#F2CC8F;strokeColor=#E07A5F;fontColor=#393C56;rounded=0;" vertex="1" parent="1">
          <mxGeometry x="370" y="95" width="43" height="43" as="geometry" />
        </mxCell>
        <mxCell id="QUnLnhxxO0VGhR0nGTpD-33" style="edgeStyle=orthogonalEdgeStyle;rounded=0;orthogonalLoop=1;jettySize=auto;html=1;exitX=0.75;exitY=0;exitDx=0;exitDy=0;" edge="1" parent="1" source="QUnLnhxxO0VGhR0nGTpD-5">
          <mxGeometry relative="1" as="geometry">
            <mxPoint x="180" y="240" as="targetPoint" />
          </mxGeometry>
        </mxCell>
        <mxCell id="QUnLnhxxO0VGhR0nGTpD-5" value="" style="image;aspect=fixed;perimeter=ellipsePerimeter;html=1;align=center;shadow=0;dashed=0;spacingTop=3;image=img/lib/active_directory/database_server.svg;labelBackgroundColor=none;fillColor=#F2CC8F;strokeColor=#E07A5F;fontColor=#393C56;rounded=0;" vertex="1" parent="1">
          <mxGeometry x="130" y="290" width="41" height="50" as="geometry" />
        </mxCell>
        <mxCell id="QUnLnhxxO0VGhR0nGTpD-6" value="" style="image;aspect=fixed;html=1;points=[];align=center;fontSize=12;image=img/lib/azure2/networking/DNS_Zones.svg;labelBackgroundColor=none;fillColor=#F2CC8F;strokeColor=#E07A5F;fontColor=#393C56;rounded=0;" vertex="1" parent="1">
          <mxGeometry x="630" y="53" width="64" height="64" as="geometry" />
        </mxCell>
        <mxCell id="QUnLnhxxO0VGhR0nGTpD-7" value="&lt;h1&gt;&lt;b&gt;serveur&lt;/b&gt;&lt;/h1&gt;" style="text;strokeColor=none;align=center;fillColor=none;html=1;verticalAlign=middle;whiteSpace=wrap;rounded=0;fontFamily=Comic Sans MS;fontStyle=4" vertex="1" parent="1">
          <mxGeometry x="301.5" y="270" width="60" height="30" as="geometry" />
        </mxCell>
        <mxCell id="QUnLnhxxO0VGhR0nGTpD-8" value="&lt;h1&gt;&lt;span style=&quot;&quot;&gt;&lt;font style=&quot;font-size: 10px;&quot;&gt;web server (Nginx)&lt;/font&gt;&lt;/span&gt;&lt;/h1&gt;" style="text;align=center;html=1;verticalAlign=middle;whiteSpace=wrap;rounded=0;fontStyle=1" vertex="1" parent="1">
          <mxGeometry x="160" y="87" width="80" height="30" as="geometry" />
        </mxCell>
        <mxCell id="QUnLnhxxO0VGhR0nGTpD-9" value="&lt;font style=&quot;font-size: 10px;&quot;&gt;&lt;b&gt;application server&lt;/b&gt;&lt;/font&gt;" style="text;strokeColor=none;align=center;fillColor=none;html=1;verticalAlign=middle;whiteSpace=wrap;rounded=0;" vertex="1" parent="1">
          <mxGeometry x="100" y="198" width="60" height="30" as="geometry" />
        </mxCell>
        <mxCell id="QUnLnhxxO0VGhR0nGTpD-10" value="&lt;b&gt;application files&lt;/b&gt;" style="text;strokeColor=none;align=center;fillColor=none;html=1;verticalAlign=middle;whiteSpace=wrap;rounded=0;" vertex="1" parent="1">
          <mxGeometry x="361.5" y="60" width="60" height="30" as="geometry" />
        </mxCell>
        <mxCell id="QUnLnhxxO0VGhR0nGTpD-22" style="edgeStyle=orthogonalEdgeStyle;rounded=0;orthogonalLoop=1;jettySize=auto;html=1;exitX=0.5;exitY=0;exitDx=0;exitDy=0;entryX=0.25;entryY=1;entryDx=0;entryDy=0;" edge="1" parent="1" source="QUnLnhxxO0VGhR0nGTpD-11" target="QUnLnhxxO0VGhR0nGTpD-5">
          <mxGeometry relative="1" as="geometry" />
        </mxCell>
        <mxCell id="QUnLnhxxO0VGhR0nGTpD-11" value="&lt;b&gt;database (MySQL)&lt;/b&gt;" style="text;strokeColor=none;align=center;fillColor=none;html=1;verticalAlign=middle;whiteSpace=wrap;rounded=0;" vertex="1" parent="1">
          <mxGeometry x="120.5" y="350" width="60" height="30" as="geometry" />
        </mxCell>
        <mxCell id="QUnLnhxxO0VGhR0nGTpD-39" style="edgeStyle=orthogonalEdgeStyle;rounded=0;orthogonalLoop=1;jettySize=auto;html=1;exitX=0.75;exitY=1;exitDx=0;exitDy=0;" edge="1" parent="1" source="QUnLnhxxO0VGhR0nGTpD-12" target="QUnLnhxxO0VGhR0nGTpD-17">
          <mxGeometry relative="1" as="geometry">
            <mxPoint x="430" y="430" as="targetPoint" />
          </mxGeometry>
        </mxCell>
        <mxCell id="QUnLnhxxO0VGhR0nGTpD-12" value="&lt;b&gt;DNS resolver&lt;/b&gt;" style="text;strokeColor=none;align=center;fillColor=none;html=1;verticalAlign=middle;whiteSpace=wrap;rounded=0;" vertex="1" parent="1">
          <mxGeometry x="600" y="108" width="60" height="30" as="geometry" />
        </mxCell>
        <mxCell id="QUnLnhxxO0VGhR0nGTpD-14" value="" style="html=1;verticalLabelPosition=bottom;align=center;labelBackgroundColor=#ffffff;verticalAlign=top;strokeWidth=2;strokeColor=#0080F0;shadow=0;dashed=0;shape=mxgraph.ios7.icons.user;" vertex="1" parent="1">
          <mxGeometry x="70" y="470" width="60" height="60" as="geometry" />
        </mxCell>
        <mxCell id="QUnLnhxxO0VGhR0nGTpD-20" style="edgeStyle=orthogonalEdgeStyle;rounded=0;orthogonalLoop=1;jettySize=auto;html=1;exitX=0.5;exitY=0;exitDx=0;exitDy=0;" edge="1" parent="1" target="QUnLnhxxO0VGhR0nGTpD-17">
          <mxGeometry relative="1" as="geometry">
            <mxPoint x="100" y="540" as="sourcePoint" />
            <mxPoint x="243.5" y="529" as="targetPoint" />
          </mxGeometry>
        </mxCell>
        <mxCell id="QUnLnhxxO0VGhR0nGTpD-15" value="&lt;b&gt;user (input)&lt;/b&gt;" style="text;strokeColor=none;align=center;fillColor=none;html=1;verticalAlign=middle;whiteSpace=wrap;rounded=0;" vertex="1" parent="1">
          <mxGeometry x="50" y="530" width="70" height="40" as="geometry" />
        </mxCell>
        <mxCell id="QUnLnhxxO0VGhR0nGTpD-46" style="edgeStyle=orthogonalEdgeStyle;rounded=0;orthogonalLoop=1;jettySize=auto;html=1;exitX=1;exitY=0.5;exitDx=0;exitDy=0;" edge="1" parent="1" source="QUnLnhxxO0VGhR0nGTpD-16" target="QUnLnhxxO0VGhR0nGTpD-7">
          <mxGeometry relative="1" as="geometry" />
        </mxCell>
        <mxCell id="QUnLnhxxO0VGhR0nGTpD-16" value="&lt;b&gt;www.foobar.com&lt;/b&gt;" style="text;strokeColor=none;align=center;fillColor=none;html=1;verticalAlign=middle;whiteSpace=wrap;rounded=0;fontStyle=0" vertex="1" parent="1">
          <mxGeometry x="200" y="399" width="60" height="30" as="geometry" />
        </mxCell>
        <mxCell id="QUnLnhxxO0VGhR0nGTpD-21" style="edgeStyle=orthogonalEdgeStyle;rounded=0;orthogonalLoop=1;jettySize=auto;html=1;" edge="1" parent="1" source="QUnLnhxxO0VGhR0nGTpD-17" target="QUnLnhxxO0VGhR0nGTpD-6">
          <mxGeometry relative="1" as="geometry" />
        </mxCell>
        <mxCell id="QUnLnhxxO0VGhR0nGTpD-17" value="" style="sketch=0;pointerEvents=1;shadow=0;dashed=0;html=1;strokeColor=none;fillColor=#434445;aspect=fixed;labelPosition=center;verticalLabelPosition=bottom;verticalAlign=top;align=center;outlineConnect=0;shape=mxgraph.vvd.web_browser;" vertex="1" parent="1">
          <mxGeometry x="171" y="399" width="154.93" height="110" as="geometry" />
        </mxCell>
        <mxCell id="QUnLnhxxO0VGhR0nGTpD-25" value="&lt;b&gt;IP&amp;nbsp;&lt;code style=&quot;box-sizing: border-box; font-family: Menlo, Monaco, Consolas, &amp;quot;Courier New&amp;quot;, monospace; font-size: 12.6px; padding: 2px 4px; color: rgb(199, 37, 78); background-color: rgb(249, 242, 244); border-radius: 4px; text-align: left;&quot;&gt;8.8.8.8&lt;/code&gt;&lt;/b&gt;" style="text;strokeColor=none;align=center;fillColor=none;html=1;verticalAlign=middle;whiteSpace=wrap;rounded=0;" vertex="1" parent="1">
          <mxGeometry x="500" y="270" width="60" height="30" as="geometry" />
        </mxCell>
        <mxCell id="QUnLnhxxO0VGhR0nGTpD-30" style="edgeStyle=orthogonalEdgeStyle;rounded=0;orthogonalLoop=1;jettySize=auto;html=1;exitX=0;exitY=1;exitDx=0;exitDy=0;entryX=0.279;entryY=-0.112;entryDx=0;entryDy=0;entryPerimeter=0;" edge="1" parent="1" source="QUnLnhxxO0VGhR0nGTpD-2" target="QUnLnhxxO0VGhR0nGTpD-3">
          <mxGeometry relative="1" as="geometry" />
        </mxCell>
        <mxCell id="QUnLnhxxO0VGhR0nGTpD-51" value="&lt;b&gt;IP&amp;nbsp;&lt;code style=&quot;box-sizing: border-box; font-family: Menlo, Monaco, Consolas, &amp;quot;Courier New&amp;quot;, monospace; font-size: 12.6px; padding: 2px 4px; color: rgb(199, 37, 78); background-color: rgb(249, 242, 244); border-radius: 4px; text-align: left;&quot;&gt;8.8.8.8&lt;/code&gt;&lt;/b&gt;" style="text;strokeColor=none;align=center;fillColor=none;html=1;verticalAlign=middle;whiteSpace=wrap;rounded=0;" vertex="1" parent="1">
          <mxGeometry x="340" y="330" width="60" height="30" as="geometry" />
        </mxCell>
        <mxCell id="QUnLnhxxO0VGhR0nGTpD-56" style="edgeStyle=orthogonalEdgeStyle;rounded=0;orthogonalLoop=1;jettySize=auto;html=1;" edge="1" parent="1" source="QUnLnhxxO0VGhR0nGTpD-55">
          <mxGeometry relative="1" as="geometry">
            <mxPoint x="170" y="439" as="targetPoint" />
          </mxGeometry>
        </mxCell>
        <mxCell id="QUnLnhxxO0VGhR0nGTpD-55" value="" style="shape=image;verticalLabelPosition=bottom;verticalAlign=top;imageAspect=0;aspect=fixed;image=data:image/svg+xml,PHN2ZyB4bWxucz0iaHR0cDovL3d3dy53My5vcmcvMjAwMC9zdmciIHZlcnNpb249IjEiIHZpZXdCb3g9IjAgMCA0OCA0OCIgZW5hYmxlLWJhY2tncm91bmQ9Im5ldyAwIDAgNDggNDgiPiYjeGE7ICAgIDxnIGZpbGw9IiMxNTY1QzAiPiYjeGE7ICAgICAgICA8cG9seWdvbiBwb2ludHM9IjQ2LjEsMjQgMzMsMzUgMzMsMTMiLz4mI3hhOyAgICAgICAgPHJlY3QgeD0iMTAiIHk9IjIwIiB3aWR0aD0iNCIgaGVpZ2h0PSI4Ii8+JiN4YTsgICAgICAgIDxyZWN0IHg9IjQiIHk9IjIwIiB3aWR0aD0iNCIgaGVpZ2h0PSI4Ii8+JiN4YTsgICAgICAgIDxyZWN0IHg9IjE2IiB5PSIyMCIgd2lkdGg9IjQiIGhlaWdodD0iOCIvPiYjeGE7ICAgICAgICA8cmVjdCB4PSIyMiIgeT0iMjAiIHdpZHRoPSIxNCIgaGVpZ2h0PSI4Ii8+JiN4YTsgICAgPC9nPiYjeGE7PC9zdmc+" vertex="1" parent="1">
          <mxGeometry x="70" y="414" width="50" height="50" as="geometry" />
        </mxCell>
      </root>
    </mxGraphModel>
  </diagram>
</mxfile>
